<svg width="2335" height="751" viewBox="0 0 2335 751" fill="none" xmlns="http://www.w3.org/2000/svg">
<path d="M141.134 274.718H117.067L102.561 234.779H37.8834L23.8969 274.708H0L58.084 124.295H83.0599L141.154 274.718H141.134ZM70.1124 144.259L43.7878 218.062H96.6567L70.1124 144.259Z" fill="black"/>
<path d="M262.257 274.718L232.576 156.858L202.605 274.718H176.759L130.924 124.295H156.109L189.927 250.401L220.098 128.638H245.513L275.734 250.616L309.701 124.295H333.968L288.162 274.718H262.257Z" fill="black"/>
<path d="M378.745 203.292C368.51 200.149 359.238 194.554 351.771 187.015C346.03 180.278 343.037 171.7 343.369 162.932C343.214 155.279 345.406 147.756 349.663 141.334C354.197 134.792 360.528 129.638 367.925 126.466C376.758 122.656 386.339 120.796 395.988 121.018C410.339 121.158 424.549 123.808 437.947 128.843V146.45C424.904 142.314 411.322 140.035 397.616 139.681C389.57 139.201 381.575 141.228 374.778 145.472C372.159 147.334 370.055 149.807 368.66 152.666C367.264 155.526 366.62 158.681 366.786 161.847C366.669 164.375 367.092 166.899 368.03 169.257C368.968 171.616 370.399 173.756 372.231 175.541C378.216 180.213 385.059 183.719 392.391 185.871L413.041 193.256C423.067 196.217 432.162 201.619 439.476 208.956C445.012 215.659 447.854 224.113 447.468 232.725C447.718 239.072 446.442 245.388 443.744 251.164C441.045 256.941 437 262.016 431.933 265.983C419.879 274.756 405.072 279.129 390.074 278.347C374.459 278.712 358.957 275.675 344.687 269.456V252.142C359.171 256.976 374.343 259.541 389.644 259.742C398.602 260.234 407.481 257.869 414.95 253.003C417.889 250.936 420.265 248.192 421.866 245.014C423.467 241.836 424.245 238.321 424.131 234.779C424.205 232.317 423.771 229.865 422.854 227.57C421.938 225.276 420.557 223.187 418.796 221.427C413.541 216.904 407.403 213.473 400.753 211.342L378.745 203.292Z" fill="black"/>
<path d="M574.036 618.282H618.084V123.326H574.036V618.282Z" fill="black"/>
<path d="M974.14 618.282V374.022C974.14 343.073 967.916 320.575 955.468 306.528C943.02 292.482 923.116 285.455 895.756 285.449C843.659 286.162 792.964 302.078 750.156 331.159V618.282H707.597V259.018H744.931L749.407 300.444C773.085 284.136 798.978 271.154 826.333 261.875C851.521 253.124 878.021 248.539 904.747 248.307C941.072 248.307 968.809 257.47 987.957 275.794C1007.1 294.119 1016.69 321.139 1016.7 356.855V618.282H974.14Z" fill="black"/>
<path d="M1190.06 618.292L1038.5 259.018H1084.78L1213.2 576.142L1341.62 259.018H1386.38L1234.86 618.292H1190.06Z" fill="black"/>
<path d="M1565.49 628.993C1551.54 629.052 1537.6 628.044 1523.81 625.98C1511.48 624.124 1499.37 621.097 1487.64 616.942C1476.87 613.089 1466.58 608.031 1456.99 601.868C1447.74 595.884 1439.28 588.793 1431.81 580.759C1424.21 572.537 1417.63 563.466 1412.21 553.732C1406.41 543.268 1401.73 532.252 1398.22 520.856C1394.34 508.196 1391.53 495.243 1389.82 482.13C1387.91 467.343 1386.99 452.449 1387.06 437.545C1387.01 423.341 1387.95 409.15 1389.88 395.073C1391.62 382.387 1394.46 369.867 1398.35 357.648C1401.94 346.416 1406.67 335.563 1412.47 325.251C1418.01 315.458 1424.64 306.293 1432.24 297.92C1447.08 281.52 1465.65 268.767 1486.46 260.691C1497.42 256.443 1508.8 253.326 1520.42 251.389C1533.1 249.273 1545.94 248.232 1558.81 248.278C1569.51 248.242 1580.2 249.021 1590.78 250.606C1600.31 252.053 1609.67 254.389 1618.75 257.58C1627.19 260.554 1635.26 264.446 1642.82 269.182C1650.13 273.808 1656.86 279.261 1662.87 285.429C1668.94 291.677 1674.25 298.594 1678.7 306.039C1683.35 313.826 1687.14 322.073 1690.02 330.64C1693.14 339.945 1695.42 349.504 1696.81 359.203C1698.36 370.013 1699.12 380.918 1699.08 391.835C1699.37 409.79 1697.87 427.73 1694.6 445.4H1430.31C1430.38 457.12 1431.19 468.825 1432.74 480.447C1434.09 490.647 1436.28 500.725 1439.27 510.585C1441.94 519.322 1445.5 527.772 1449.91 535.802C1453.96 543.137 1458.92 549.959 1464.66 556.119C1470.3 562.114 1476.7 567.374 1483.71 571.77C1491.13 576.374 1499.07 580.12 1507.37 582.931C1516.54 586.028 1525.99 588.272 1535.6 589.631C1546.49 591.167 1557.48 591.919 1568.48 591.881C1610.86 591.965 1652.81 583.453 1691.67 566.879V600.45C1673.42 610.172 1653.88 617.381 1633.61 621.872C1611.25 626.76 1588.4 629.149 1565.49 628.993ZM1555 284.735C1545.71 284.691 1536.43 285.345 1527.25 286.691C1518.98 287.932 1510.85 289.94 1502.97 292.687C1495.67 295.258 1488.69 298.617 1482.16 302.704C1475.84 306.679 1470.03 311.375 1464.84 316.691C1459.55 322.16 1454.9 328.194 1450.99 334.68C1446.8 341.66 1443.33 349.025 1440.61 356.669C1434.47 374.745 1431 393.585 1430.29 412.621H1657.26C1657.75 405.92 1658 397.948 1658 389.067C1658.26 373.773 1656.05 358.535 1651.47 343.914C1647.57 331.671 1640.88 320.459 1631.89 311.135C1627.51 306.722 1622.6 302.84 1617.28 299.573C1611.72 296.19 1605.78 293.421 1599.6 291.318C1585.21 286.696 1570.14 284.47 1555 284.735Z" fill="black"/>
<path d="M2022.05 618.282V374.022C2022.05 343.073 2015.83 320.575 2003.38 306.528C1990.93 292.482 1971.02 285.458 1943.65 285.458C1891.56 286.173 1840.87 302.089 1798.07 331.168V618.282H1755.51V259.018H1792.84L1797.32 300.444C1820.99 284.136 1846.89 271.154 1874.24 261.875C1899.43 253.128 1925.92 248.543 1952.65 248.307C1988.97 248.307 2016.71 257.47 2035.86 275.794C2055 294.119 2064.58 321.139 2064.6 356.855V618.282H2022.05Z" fill="black"/>
<path d="M2332 610.417C2307.86 619.054 2282.28 623.175 2256.58 622.566C2227.18 622.566 2204.79 615.067 2189.42 600.068C2174.05 585.07 2166.32 563.282 2166.25 534.707V294.732H2096.07V266.169L2167.74 259.781L2173.73 154.745H2208.83V259.018H2328.29V294.732H2208.81V532.565C2208.81 552.128 2213.14 565.937 2221.8 573.99C2230.45 582.044 2245.01 586.093 2265.47 586.139C2287.9 585.886 2310.21 583.009 2331.93 577.57L2332 610.417Z" fill="black"/>
<path d="M9.35095 618.272V379.676H34.147L37.1441 414.303C47.511 402.671 60.0588 393.091 74.1085 386.083C86.9479 380.39 100.916 377.554 115.009 377.778C121.812 377.855 128.604 378.328 135.349 379.197V403.397C126.738 402.745 118.965 402.419 112.032 402.419C98.1184 402.156 84.3181 404.912 71.6209 410.489C58.6024 416.838 47.0442 425.722 37.6536 436.596V618.272H9.35095Z" fill="black"/>
<path d="M272.027 625.403C262.762 625.456 253.506 624.802 244.344 623.447C236.141 622.217 228.081 620.206 220.277 617.441C213.119 614.886 206.286 611.528 199.917 607.434C193.791 603.459 188.193 598.754 183.253 593.426C178.219 587.964 173.86 581.939 170.266 575.477C166.414 568.53 163.301 561.214 160.975 553.644C155.728 535.645 153.224 516.985 153.542 498.27C153.271 480.31 155.801 462.416 161.045 445.204C163.427 437.742 166.566 430.533 170.416 423.684C174.093 417.179 178.492 411.091 183.533 405.529C193.394 394.634 205.735 386.163 219.558 380.801C226.826 377.984 234.372 375.912 242.076 374.619C250.508 373.213 259.048 372.523 267.602 372.555C281.15 372.329 294.635 374.414 307.453 378.717C318.557 382.578 328.595 388.91 336.775 397.215C344.968 405.779 351.12 416.015 354.788 427.186C358.986 440.344 361.009 454.075 360.782 467.858C360.969 479.784 359.965 491.7 357.785 503.435H182.264C182.152 518.065 184.153 532.637 188.208 546.719C191.425 557.918 197.19 568.258 205.072 576.964C212.892 585.097 222.646 591.21 233.465 594.757C246.548 598.919 260.252 600.903 274.006 600.626C302.16 600.676 330.019 595.014 355.827 583.997V606.299C343.702 612.754 330.725 617.54 317.264 620.522C302.422 623.817 287.246 625.454 272.027 625.403ZM265.034 396.745C253.291 396.53 241.599 398.311 230.478 402.008C220.88 405.323 212.207 410.79 205.152 417.972C197.945 425.594 192.476 434.63 189.107 444.48C185.037 456.49 182.733 469.005 182.264 481.651H333.019C333.348 477.18 333.518 471.869 333.518 466C333.697 455.835 332.233 445.707 329.182 435.989C326.576 427.879 322.117 420.456 316.145 414.284C310.153 408.307 302.813 403.788 294.716 401.088C285.153 398.025 275.133 396.557 265.074 396.745H265.034Z" fill="black"/>
<path d="M426.588 621.128C423.613 621.24 420.645 620.751 417.871 619.69C415.097 618.63 412.576 617.022 410.464 614.966C408.413 612.896 406.808 610.445 405.744 607.756C404.68 605.068 404.179 602.197 404.27 599.315C404.147 596.359 404.632 593.409 405.696 590.639C406.76 587.87 408.381 585.339 410.464 583.195C414.853 579.225 420.609 577.021 426.583 577.021C432.558 577.021 438.314 579.225 442.703 583.195C444.79 585.342 446.415 587.878 447.481 590.652C448.547 593.427 449.032 596.383 448.907 599.344C449.027 602.243 448.532 605.133 447.452 607.834C446.372 610.535 444.731 612.987 442.633 615.035C440.535 617.083 438.026 618.682 435.264 619.73C432.502 620.779 429.548 621.255 426.588 621.128ZM426.588 420.935C423.613 421.047 420.645 420.558 417.871 419.497C415.097 418.437 412.576 416.829 410.464 414.773C408.413 412.704 406.808 410.252 405.744 407.563C404.68 404.875 404.179 402.004 404.27 399.122C404.147 396.164 404.632 393.213 405.696 390.442C406.76 387.671 408.381 385.138 410.464 382.992C414.855 379.03 420.607 376.83 426.578 376.83C432.55 376.83 438.302 379.03 442.693 382.992C444.777 385.137 446.4 387.67 447.466 390.441C448.531 393.212 449.018 396.164 448.897 399.122C449.021 402.022 448.529 404.915 447.452 407.619C446.375 410.322 444.735 412.777 442.638 414.828C440.541 416.879 438.031 418.481 435.268 419.532C432.505 420.583 429.55 421.061 426.588 420.935Z" fill="black"/>
</svg>
