<svg width="438" height="141" xmlns="http://www.w3.org/2000/svg" xmlns:xlink="http://www.w3.org/1999/xlink" xml:space="preserve" overflow="hidden"><g transform="translate(-500 -159)"><path d="M21.6282 48.0111C19.0806 48.004 16.5546 48.5339 14.2308 49.5656 11.6037 50.8801 9.26542 52.668 7.32403 54.8445L6.7611 48.3643 2.12054 48.3643 2.12054 92.9833 7.40342 92.9833 7.40342 59.0068C9.15717 56.9715 11.3223 55.3109 13.7544 54.1236 16.0206 53.1273 18.4744 52.6184 20.9499 52.6113 21.0726 52.6113 21.1953 52.6113 21.3179 52.6113 22.617 52.6113 24.0676 52.6751 25.677 52.7952L25.677 48.2725C24.4212 48.11 23.1438 48.0182 21.8735 48.0111 21.7942 48.0111 21.7076 48.0111 21.6211 48.0111L21.6282 48.0111Z" fill="#AA0071" transform="matrix(1.00266 0 0 1 500 159)"/><path d="M11.2357 0.607759 0.374005 28.7403 4.83415 28.7403 7.46114 21.2708 19.5569 21.2708 22.2705 28.7403 26.7739 28.7403 15.9051 0.607759 11.2357 0.607759ZM8.56536 18.1402 13.4874 4.33897 18.4527 18.1402 8.56536 18.1402Z" fill="#AA0071" transform="matrix(1.00266 0 0 1 500 159)"/><path d="M37.8834 28.6812 43.4837 6.64028 49.0338 28.6812 53.8835 28.6812 62.4503 0.548795 57.9106 0.548795 51.5525 24.1798 45.9088 1.36146 41.1527 1.36146 35.509 24.1374 29.1868 0.548795 24.4742 0.548795 33.0479 28.6812 37.8834 28.6812Z" fill="#AA0071" transform="matrix(1.00266 0 0 1 500 159)"/><path d="M67.8462 64.4834C67.8462 62.0383 67.4709 59.6004 66.7203 57.2613 66.0348 55.1695 64.88 53.2475 63.3427 51.6503 61.8128 50.0958 59.9362 48.9156 57.8579 48.1876 55.5772 47.4173 53.1738 47.0287 50.7634 47.0287 50.648 47.0287 50.5253 47.0287 50.4097 47.0287L50.2583 47.0287C48.7065 47.0287 47.1621 47.163 45.632 47.4173 44.1887 47.6647 42.7813 48.0464 41.4246 48.5764 38.8408 49.5798 36.5313 51.1628 34.6911 53.198 33.7456 54.2368 32.9229 55.3745 32.2372 56.59 31.5156 57.8691 30.931 59.2187 30.4835 60.6109 29.8411 62.7168 29.4153 64.8793 29.2134 67.0627 29.1051 68.2146 29.0617 69.3806 29.0761 70.5396 29.0761 70.7375 29.0761 70.9353 29.0761 71.1332 29.0761 73.3946 29.3 75.6559 29.7329 77.8748 29.7329 77.8748 29.7329 77.8819 29.7329 77.8888 29.7329 77.9031 29.7329 77.9173 29.7402 77.9242 29.9423 78.9207 30.1804 79.9171 30.4618 80.8923 30.9022 82.3057 31.4795 83.6766 32.2011 84.9697 32.8724 86.1781 33.6951 87.3087 34.6406 88.3335 35.5644 89.3299 36.6108 90.2062 37.7583 90.9553 38.9491 91.7184 40.2265 92.3473 41.5617 92.8279 43.0196 93.3437 44.528 93.7183 46.0578 93.9514 47.7178 94.1989 49.3923 94.3189 51.0738 94.3189L51.3696 94.3189C54.1698 94.3189 56.9629 94.0221 59.6982 93.4215 62.2169 92.8633 64.6418 91.9657 66.9081 90.7644L66.9081 86.5951C62.0798 88.6514 56.869 89.7115 51.6079 89.6973 51.4491 89.6973 51.283 89.6973 51.1243 89.6973 48.7138 89.6973 46.3178 89.3228 44.0227 88.5949 41.9946 87.9307 40.176 86.7859 38.711 85.2665 37.2386 83.6341 36.156 81.705 35.5571 79.6132 35.2612 78.5815 35.023 77.5356 34.8427 76.4826 34.5611 74.8431 34.4313 73.1826 34.4457 71.5149L67.2688 71.5149C67.3843 70.8929 67.478 70.2711 67.5646 69.6491 67.5646 69.6351 67.5646 69.628 67.5646 69.6138 67.5646 69.5856 67.5719 69.5502 67.5792 69.5149 67.5792 69.4866 67.5863 69.4513 67.5936 69.4159 67.5936 69.4019 67.5936 69.3877 67.5936 69.3666 67.5936 69.317 67.608 69.2677 67.608 69.2252 67.608 69.2181 67.608 69.211 67.608 69.211 67.6802 68.5821 67.738 67.9461 67.7741 67.3101 67.7741 67.303 67.7741 67.289 67.7741 67.2819 67.7741 67.2254 67.7741 67.1758 67.7812 67.1263 67.7812 67.084 67.7812 67.0345 67.7812 66.9922 67.7812 66.9709 67.7812 66.9569 67.7812 66.9355 67.8029 66.4198 67.8173 65.9038 67.8173 65.3879 67.8173 65.2114 67.8173 65.0347 67.8173 64.8579 67.8173 64.7308 67.8173 64.6036 67.8173 64.4694L67.8462 64.4834ZM62.7437 64.5047C62.7437 65.6142 62.7149 66.5963 62.6498 67.4302L34.4674 67.4302C34.554 65.07 34.9869 62.731 35.7448 60.4838 36.3799 58.6394 37.3975 56.9575 38.747 55.5299 40.0677 54.1874 41.6844 53.1626 43.4815 52.5408 45.4589 51.8835 47.5374 51.5514 49.6303 51.5514 49.7313 51.5514 49.8325 51.5514 49.9407 51.5514 50.0273 51.5514 50.1212 51.5514 50.2005 51.5514 51.9903 51.5514 53.773 51.8199 55.4762 52.3712 56.9917 52.8729 58.363 53.7139 59.4889 54.8303 60.6076 55.9822 61.4375 57.3743 61.9282 58.8937 62.0942 59.4165 62.2313 59.9467 62.3469 60.4838 62.3469 60.4978 62.3469 60.512 62.354 60.526 62.354 60.5402 62.354 60.5545 62.354 60.5614 62.6066 61.7627 62.7366 62.9782 62.7366 64.2008 62.7366 64.2997 62.7366 64.4058 62.7366 64.5047L62.7437 64.5047Z" fill="#AA0071" transform="matrix(1.00266 0 0 1 500 159)"/><path d="M84.0556 20.8891C84.0556 20.7973 84.0556 20.6984 84.0556 20.6064 84.0556 19.8715 83.933 19.1508 83.6949 18.4652 83.4423 17.7374 83.0526 17.0519 82.5546 16.4442 81.1833 15.0732 79.4874 14.0627 77.611 13.5044L73.7497 12.1193C72.3784 11.7166 71.0939 11.0664 69.9753 10.1972 69.3185 9.55415 68.9505 8.69201 68.9505 7.78748 68.9505 7.73095 68.9505 7.68147 68.9505 7.62494 68.8998 6.572 69.3185 5.56855 70.0907 4.85481 70.1989 4.7488 70.3289 4.64988 70.4516 4.558 71.599 3.84427 72.9342 3.46267 74.2911 3.46974 74.4353 3.46974 74.5725 3.46974 74.7169 3.48388 77.2861 3.54748 79.8266 3.9644 82.2731 4.74173L82.2731 1.46987C79.7688 0.530001 77.113 0.0282668 74.4282 0 74.3416 0 74.2621 0 74.1755 0 72.4579 0 70.7547 0.3392 69.1886 1.0176 67.8029 1.6112 66.6193 2.57228 65.775 3.79481 65.7604 3.81601 65.7533 3.83013 65.7389 3.85134 64.981 5.01027 64.5842 6.34588 64.5842 7.71681 64.5842 7.75921 64.5842 7.79455 64.5842 7.83694 64.5842 7.92175 64.5842 7.99949 64.5842 8.08427 64.5842 8.35281 64.5986 8.62135 64.6347 8.88281 64.7934 10.1478 65.3202 11.3561 66.1647 12.3455 67.5648 13.7588 69.2968 14.8047 71.2093 15.3912L75.323 16.8964C76.5643 17.2922 77.7191 17.9352 78.7006 18.7833 79.3647 19.4475 79.7254 20.3521 79.6966 21.2777 79.6966 21.299 79.6966 21.3131 79.6966 21.3344L79.6966 21.412C79.6966 22.6486 79.1193 23.8148 78.1305 24.5779 78.1017 24.5991 78.08 24.6133 78.0512 24.6415 78.0295 24.6556 78.0078 24.6698 77.9861 24.6909 76.716 25.5178 75.2364 25.956 73.7209 25.9629 73.5622 25.9629 73.4105 25.9629 73.2517 25.9489 70.3938 25.9135 67.5575 25.4329 64.8512 24.5284L64.8512 27.7579C67.3554 28.8532 70.0546 29.4185 72.7898 29.4256 72.9703 29.4256 73.1579 29.4256 73.3383 29.4256 73.5549 29.4398 73.7785 29.4398 73.9951 29.4398 76.5716 29.4398 79.0903 28.6271 81.1689 27.1077 83.0886 25.6096 84.1639 23.306 84.0773 20.8962L84.0556 20.8891Z" fill="#AA0071" transform="matrix(1.00266 0 0 1 500 159)"/><path d="M84.3229 51.8412C84.3229 51.0639 84.0992 50.3007 83.6805 49.6505 83.529 49.4173 83.3557 49.1912 83.1608 48.9934 82.3958 48.2514 81.371 47.8414 80.3029 47.8343 80.2524 47.8343 80.2019 47.8343 80.1441 47.8343 80.0936 47.8343 80.0358 47.8343 79.9853 47.8343 78.9172 47.8343 77.8924 48.2514 77.1274 48.9934 76.5933 49.5445 76.2324 50.2158 76.0663 50.9438L76.0663 50.9578C76.0014 51.2477 75.9726 51.5445 75.9726 51.8341 75.9726 51.8906 75.9726 51.9473 75.9726 52.0038 75.9726 52.0249 75.9726 52.0391 75.9726 52.0602 75.9653 52.463 76.0231 52.8589 76.1314 53.2333 76.319 53.8695 76.6582 54.4488 77.1345 54.9294 77.8995 55.6714 78.9245 56.0813 79.9926 56.0885 80.0431 56.0885 80.1007 56.0885 80.1514 56.0885 80.2019 56.0885 80.2597 56.0885 80.3102 56.0885 81.3783 56.0885 82.4031 55.6714 83.1681 54.9294 83.9259 54.1663 84.3446 53.1275 84.3302 52.0602 84.3302 52.0391 84.3302 52.0249 84.3302 52.0038 84.3302 51.9473 84.3302 51.8906 84.3302 51.8412L84.3229 51.8412Z" fill="#AA0071" transform="matrix(1.00266 0 0 1 500 159)"/><path d="M83.1608 86.4255C82.3958 85.6906 81.371 85.2736 80.3029 85.2665 80.2524 85.2665 80.2019 85.2665 80.1441 85.2665 80.0936 85.2665 80.0358 85.2665 79.9853 85.2665 78.9172 85.2665 77.8924 85.6835 77.1274 86.4255 76.5933 86.9766 76.2324 87.6481 76.0663 88.3689 76.0663 88.376 76.0663 88.3831 76.0663 88.39 76.0014 88.6798 75.9726 88.9695 75.9726 89.2663 75.9726 89.3229 75.9726 89.3794 75.9726 89.4359 75.9726 89.4572 75.9726 89.4712 75.9726 89.4926 75.9653 89.8954 76.0231 90.2911 76.1314 90.6656 76.319 91.3016 76.6582 91.8811 77.1345 92.3615 77.8995 93.1036 78.9245 93.5135 79.9926 93.5206 80.0431 93.5206 80.1007 93.5206 80.1514 93.5206 80.2019 93.5206 80.2597 93.5206 80.3102 93.5206 81.3783 93.5206 82.4031 93.1036 83.1681 92.3615 83.9332 91.5984 84.3517 90.5596 84.3302 89.4926 84.3302 89.4712 84.3302 89.4572 84.3302 89.4359 84.3302 89.3794 84.3302 89.3229 84.3302 89.2734 84.3302 88.4891 84.1063 87.7329 83.6878 87.0826 83.5361 86.8495 83.363 86.6234 83.1681 86.4255L83.1608 86.4255Z" fill="#AA0071" transform="matrix(1.00266 0 0 1 500 159)"/><path d="M116.218 0.365856 107.984 0.365856 107.984 92.9323 116.218 92.9323 116.218 0.365856Z" fill="#AA0071" transform="matrix(1.00266 0 0 1 500 159)"/><path d="M169.556 23.8077C164.562 23.8501 159.604 24.7051 154.898 26.3446 149.781 28.0829 144.946 30.5069 140.522 33.5597L139.685 25.8146 132.706 25.8146 132.706 92.9975 140.666 92.9975 140.666 39.2979C148.67 33.8565 158.153 30.8814 167.896 30.7472 173.013 30.7472 176.737 32.0616 179.061 34.6903 181.385 37.3192 182.554 41.5238 182.554 47.3115L182.554 92.9904 190.507 92.9904 190.507 44.1031C190.507 37.4252 188.717 32.3724 185.13 28.9452 181.551 25.5178 176.362 23.8077 169.57 23.8077L169.556 23.8077Z" fill="#AA0071" transform="matrix(1.00266 0 0 1 500 159)"/><path d="M227.249 85.1111 203.231 25.8075 194.578 25.8075 222.918 92.9975 231.298 92.9975 259.633 25.8075 251.261 25.8075 227.249 85.1111Z" fill="#AA0071" transform="matrix(1.00266 0 0 1 500 159)"/><path d="M317.678 44.5483C317.411 42.7322 316.994 40.9513 316.409 39.2059 315.868 37.6017 315.159 36.0612 314.293 34.6056 313.463 33.2134 312.468 31.9202 311.335 30.7543 310.209 29.6023 308.953 28.5776 307.582 27.7155 306.168 26.8323 304.659 26.1043 303.086 25.5461 301.383 24.9454 299.629 24.5144 297.847 24.2387 295.926 23.956 293.992 23.8077 292.051 23.8077L291.64 23.8077C289.308 23.8077 286.986 24.0055 284.689 24.387 282.518 24.7547 280.388 25.334 278.339 26.1256 274.449 27.6379 270.971 30.0263 268.199 33.0862 266.776 34.655 265.536 36.3651 264.504 38.1955 263.421 40.1246 262.533 42.1526 261.862 44.2516 261.132 46.5412 260.607 48.8803 260.282 51.2546 260.158 52.1309 260.065 53.0072 259.986 53.8835 259.986 53.8904 259.986 53.8975 259.986 53.9046 259.986 53.9258 259.986 53.954 259.979 53.9753 259.827 55.7066 259.754 57.4521 259.754 59.1976 259.754 59.2965 259.754 59.3954 259.754 59.4943 259.754 61.0491 259.812 62.6036 259.928 64.1513 260.014 65.2821 260.13 66.4127 260.274 67.5362 260.592 69.9884 261.119 72.4123 261.849 74.7796 262.505 76.9138 263.386 78.9701 264.474 80.9276 265.491 82.7507 266.72 84.4468 268.141 85.9803 269.534 87.4783 271.122 88.807 272.846 89.9234 274.643 91.0753 276.564 92.0223 278.576 92.743 280.771 93.5204 283.036 94.0857 285.34 94.432 287.836 94.8066 290.363 94.9974 292.887 94.9974L293.134 94.9974C293.271 94.9974 293.4 94.9974 293.531 94.9974 297.68 94.9974 301.822 94.5521 305.871 93.6689 309.661 92.8279 313.312 91.4781 316.726 89.662L316.726 83.3867C309.516 86.4609 301.736 88.0508 293.869 88.0579L293.495 88.0579C291.502 88.0579 289.51 87.9236 287.541 87.6409 285.744 87.3865 283.975 86.9697 282.266 86.3902 280.713 85.8671 279.227 85.1605 277.841 84.3055 276.526 83.4857 275.337 82.5035 274.275 81.3798 273.2 80.2281 272.276 78.9561 271.518 77.5852 270.696 76.0798 270.024 74.5039 269.527 72.8716 268.964 71.0272 268.56 69.1403 268.308 67.2323 268.018 65.0558 267.866 62.8722 267.851 60.6816L317.274 60.6816C317.852 57.5581 318.133 54.3922 318.12 51.2193 318.12 51.0356 318.12 50.8447 318.12 50.6611 318.127 48.6188 317.981 46.5766 317.693 44.5554L317.678 44.5483ZM310.426 50.1311C310.426 51.7988 310.383 53.2827 310.288 54.5335L267.846 54.5335C267.975 50.9719 268.624 47.4458 269.772 44.0677 270.277 42.6403 270.928 41.2623 271.713 39.955 272.442 38.7395 273.316 37.6089 274.305 36.5912 275.279 35.5948 276.362 34.7185 277.546 33.9696 278.765 33.2062 280.07 32.5774 281.435 32.0968 282.907 31.581 284.429 31.2064 285.974 30.9733 287.634 30.733 289.323 30.6058 291.004 30.6058L291.171 30.6058C291.35 30.6058 291.524 30.6058 291.705 30.6058 294.353 30.6129 296.994 31.0297 299.513 31.8353 300.668 32.231 301.779 32.747 302.819 33.383 303.816 33.9907 304.732 34.7185 305.547 35.5455 307.229 37.2909 308.483 39.3826 309.205 41.6793 310.022 44.2656 310.434 46.9652 310.434 49.6716 310.434 49.8272 310.434 49.9755 310.434 50.124L310.426 50.1311Z" fill="#AA0071" transform="matrix(1.00266 0 0 1 500 159)"/><path d="M365.521 23.8077C360.526 23.8501 355.569 24.7051 350.862 26.3446 345.745 28.0829 340.91 30.5069 336.479 33.5597L335.642 25.8146 328.663 25.8146 328.663 92.9975 336.623 92.9975 336.623 39.2979C344.627 33.8565 354.11 30.8814 363.845 30.7472 368.964 30.7472 372.687 32.0616 375.011 34.6903 377.334 37.3192 378.505 41.5238 378.505 47.3115L378.505 92.9904 386.458 92.9904 386.458 44.1031C386.458 37.4252 384.661 32.3724 381.08 28.9452 377.5 25.5178 372.311 23.8077 365.521 23.8077Z" fill="#AA0071" transform="matrix(1.00266 0 0 1 500 159)"/><path d="M436.457 85.3796C432.401 86.3973 428.223 86.9344 424.029 86.9837 420.212 86.9837 417.483 86.2277 415.86 84.7083 414.235 83.196 413.42 80.6096 413.42 76.9632L413.42 32.4855 435.765 32.4855 435.765 25.8075 413.42 25.8075 413.42 6.31055 406.86 6.31055 405.749 25.9489 392.347 27.1431 392.347 32.4855 405.467 32.4855 405.467 77.3589C405.482 82.7014 406.925 86.7788 409.798 89.5844 412.67 92.3898 416.863 93.7889 422.362 93.7889 422.665 93.796 422.961 93.8032 423.264 93.8032 427.761 93.8032 432.234 93.0329 436.464 91.5206L436.464 85.3725 436.457 85.3796Z" fill="#AA0071" transform="matrix(1.00266 0 0 1 500 159)"/><path d="M424.975 123.584 427.892 123.584 430.331 134.391 432.769 123.584 435.647 123.584 431.924 136.886 428.679 136.886 424.975 123.584Z" fill="#AA0071" transform="matrix(1.00266 0 0 1 500 159)"/><path d="M412.275 123.584 415.269 123.584 418.994 133.028 418.994 123.584 421.489 123.584 421.489 136.886 418.533 136.886 414.772 127.385 414.772 136.886 412.275 136.886 412.275 123.584Z" fill="#AA0071" transform="matrix(1.00266 0 0 1 500 159)"/><path d="M394.766 133.258 395.937 133.258C397.025 133.258 397.568 133.61 397.568 134.314 397.568 134.685 397.459 135.107 397.242 135.581 397.037 136.041 396.526 136.88 395.707 138.095L394.46 139.938 392.386 139.938 394.766 133.258Z" fill="#AA0071" transform="matrix(1.00266 0 0 1 500 159)"/><path d="M381.798 137.212C381.132 137.212 380.453 137.142 379.763 137.001 379.071 136.873 378.477 136.694 377.977 136.464L377.977 134.314C379.219 134.736 380.487 134.947 381.779 134.947 382.495 134.947 383.045 134.806 383.428 134.525 383.814 134.231 384.004 133.821 384.004 133.296 384.004 132.874 383.872 132.535 383.602 132.279 383.346 132.01 382.886 131.742 382.22 131.473L380.896 130.936C378.873 130.117 377.863 128.863 377.863 127.173 377.863 126.367 378.054 125.67 378.439 125.081 378.836 124.493 379.385 124.045 380.089 123.737 380.794 123.418 381.613 123.258 382.546 123.258 383.671 123.258 384.831 123.494 386.02 123.968L386.02 126.079C384.894 125.708 383.787 125.523 382.699 125.523 382.046 125.523 381.542 125.651 381.182 125.906 380.838 126.15 380.664 126.495 380.664 126.943 380.664 127.289 380.794 127.589 381.05 127.845 381.317 128.101 381.779 128.363 382.432 128.632L383.756 129.17C384.894 129.63 385.695 130.161 386.155 130.763 386.615 131.351 386.847 132.151 386.847 133.162 386.847 133.994 386.635 134.717 386.213 135.331 385.79 135.945 385.196 136.412 384.427 136.732 383.671 137.052 382.796 137.212 381.798 137.212Z" fill="#AA0071" transform="matrix(1.00266 0 0 1 500 159)"/><path d="M367.333 123.584 370.518 123.584 374.28 136.886 371.286 136.886 370.576 133.776 367.122 133.776 366.411 136.886 363.571 136.886 367.333 123.584ZM370.116 131.742 368.848 126.194 367.582 131.742 370.116 131.742Z" fill="#AA0071" transform="matrix(1.00266 0 0 1 500 159)"/><path d="M356.13 137.135C354.351 137.135 352.982 136.553 352.023 135.389 351.062 134.224 350.583 132.554 350.583 130.379 350.583 128.088 351.083 126.342 352.079 125.139 353.091 123.936 354.55 123.334 356.457 123.334 357.787 123.334 358.901 123.597 359.797 124.121L359.797 126.31C359.298 126.105 358.772 125.945 358.222 125.83 357.673 125.715 357.179 125.657 356.745 125.657 355.606 125.657 354.774 126.015 354.248 126.732 353.725 127.448 353.461 128.581 353.461 130.129L353.461 130.475C353.461 132.062 353.712 133.201 354.211 133.891 354.722 134.57 355.561 134.909 356.724 134.909 357.044 134.909 357.366 134.883 357.686 134.832L357.686 131.531 355.63 131.531 355.63 129.381 360.257 129.381 360.257 136.137C359.745 136.444 359.118 136.688 358.376 136.867 357.646 137.046 356.898 137.135 356.13 137.135Z" fill="#AA0071" transform="matrix(1.00266 0 0 1 500 159)"/><path d="M338.019 123.584 346.445 123.584 346.445 125.734 340.743 125.734 340.743 128.997 345.351 128.997 345.351 131.147 340.743 131.147 340.743 134.736 346.445 134.736 346.445 136.886 338.019 136.886 338.019 123.584Z" fill="#AA0071" transform="matrix(1.00266 0 0 1 500 159)"/><path d="M323.303 123.584 326.221 123.584 328.659 134.391 331.096 123.584 333.976 123.584 330.25 136.886 327.008 136.886 323.303 123.584Z" fill="#AA0071" transform="matrix(1.00266 0 0 1 500 159)"/><path d="M306.984 137.212C306.318 137.212 305.639 137.142 304.949 137.001 304.257 136.873 303.662 136.694 303.163 136.464L303.163 134.314C304.405 134.736 305.671 134.947 306.963 134.947 307.681 134.947 308.231 134.806 308.614 134.525 308.998 134.231 309.19 133.821 309.19 133.296 309.19 132.874 309.056 132.535 308.788 132.279 308.532 132.01 308.07 131.742 307.404 131.473L306.08 130.936C304.059 130.117 303.047 128.863 303.047 127.173 303.047 126.367 303.24 125.67 303.623 125.081 304.021 124.493 304.571 124.045 305.274 123.737 305.979 123.418 306.797 123.258 307.732 123.258 308.857 123.258 310.015 123.494 311.206 123.968L311.206 126.079C310.08 125.708 308.973 125.523 307.885 125.523 307.232 125.523 306.727 125.651 306.368 125.906 306.022 126.15 305.85 126.495 305.85 126.943 305.85 127.289 305.979 127.589 306.234 127.845 306.503 128.101 306.963 128.363 307.616 128.632L308.941 129.17C310.08 129.63 310.879 130.161 311.341 130.763 311.801 131.351 312.031 132.151 312.031 133.162 312.031 133.994 311.819 134.717 311.399 135.331 310.976 135.945 310.38 136.412 309.613 136.732 308.857 137.052 307.98 137.212 306.984 137.212Z" fill="#AA0071" transform="matrix(1.00266 0 0 1 500 159)"/><path d="M292.517 123.584 295.704 123.584 299.466 136.886 296.472 136.886 295.762 133.776 292.306 133.776 291.597 136.886 288.755 136.886 292.517 123.584ZM295.302 131.742 294.034 126.194 292.768 131.742 295.302 131.742Z" fill="#AA0071" transform="matrix(1.00266 0 0 1 500 159)"/><path d="M276.555 123.584 279.358 123.584 279.358 134.582 285.269 134.582 285.269 136.886 276.555 136.886 276.555 123.584Z" fill="#AA0071" transform="matrix(1.00266 0 0 1 500 159)"/><path d="M258.105 122.413 261.061 122.413 261.061 140.84 258.105 140.84 258.105 122.413Z" fill="#AA0071" transform="matrix(1.00266 0 0 1 500 159)"/><path d="M237.888 137.174C236.493 137.174 235.182 136.905 233.953 136.368L233.953 134.218C235.463 134.704 236.73 134.947 237.753 134.947 238.548 134.947 239.148 134.768 239.558 134.41 239.967 134.052 240.173 133.527 240.173 132.836 240.173 132.145 239.967 131.639 239.558 131.319 239.148 130.987 238.516 130.82 237.658 130.82 236.712 130.82 235.663 130.884 234.511 131.012L234.511 129.285 234.855 123.584 242.398 123.584 242.398 125.772 237.217 125.772 237.005 128.92C237.531 128.792 238.081 128.728 238.657 128.728 239.975 128.728 241.03 129.099 241.822 129.841 242.617 130.571 243.014 131.55 243.014 132.778 243.014 133.674 242.789 134.455 242.342 135.12 241.907 135.785 241.299 136.297 240.517 136.656 239.75 137.001 238.873 137.174 237.888 137.174Z" fill="#AA0071" transform="matrix(1.00266 0 0 1 500 159)"/><path d="M220.485 134.813C221.996 133.303 223.167 132.081 223.999 131.147 224.831 130.213 225.426 129.445 225.783 128.843 226.142 128.229 226.322 127.666 226.322 127.154 226.322 126.668 226.174 126.29 225.881 126.022 225.585 125.74 225.189 125.599 224.689 125.599 224.126 125.599 223.513 125.727 222.847 125.983 222.182 126.239 221.51 126.604 220.831 127.077L220.831 124.793C221.548 124.243 222.245 123.853 222.924 123.622 223.614 123.379 224.377 123.258 225.207 123.258 226.425 123.258 227.397 123.597 228.126 124.275 228.869 124.953 229.239 125.849 229.239 126.962 229.239 127.602 229.067 128.268 228.721 128.959 228.375 129.65 227.799 130.449 226.993 131.358 226.2 132.266 225.093 133.367 223.672 134.659L229.776 134.659 229.776 136.886 220.485 136.886 220.485 134.813Z" fill="#AA0071" transform="matrix(1.00266 0 0 1 500 159)"/><path d="M211.625 137.174C210.026 137.174 208.803 136.579 207.96 135.389 207.115 134.199 206.692 132.478 206.692 130.225 206.692 127.96 207.115 126.233 207.96 125.043 208.803 123.853 210.026 123.258 211.625 123.258 213.226 123.258 214.447 123.853 215.292 125.043 216.136 126.233 216.558 127.954 216.558 130.206 216.558 132.471 216.136 134.199 215.292 135.389 214.447 136.579 213.226 137.174 211.625 137.174ZM212.949 125.983C212.605 125.625 212.164 125.446 211.625 125.446 210.832 125.446 210.251 125.836 209.879 126.617 209.508 127.385 209.321 128.587 209.321 130.225 209.321 130.993 209.361 131.665 209.437 132.241L212.949 125.983ZM211.625 134.986C212.418 134.986 213.002 134.602 213.372 133.834 213.744 133.053 213.929 131.844 213.929 130.206 213.929 129.4 213.884 128.728 213.795 128.191L210.283 134.448C210.627 134.806 211.076 134.986 211.625 134.986Z" fill="#AA0071" transform="matrix(1.00266 0 0 1 500 159)"/><path d="M193.628 134.813C195.139 133.303 196.31 132.081 197.142 131.147 197.972 130.213 198.569 129.445 198.926 128.843 199.285 128.229 199.465 127.666 199.465 127.154 199.465 126.668 199.317 126.29 199.021 126.022 198.728 125.74 198.331 125.599 197.832 125.599 197.269 125.599 196.656 125.727 195.99 125.983 195.324 126.239 194.653 126.604 193.974 127.077L193.974 124.793C194.69 124.243 195.388 123.853 196.067 123.622 196.757 123.379 197.518 123.258 198.35 123.258 199.566 123.258 200.538 123.597 201.267 124.275 202.01 124.953 202.382 125.849 202.382 126.962 202.382 127.602 202.208 128.268 201.864 128.959 201.518 129.65 200.942 130.449 200.136 131.358 199.343 132.266 198.236 133.367 196.815 134.659L202.918 134.659 202.918 136.886 193.628 136.886 193.628 134.813Z" fill="#AA0071" transform="matrix(1.00266 0 0 1 500 159)"/><path d="M176.08 133.258 177.251 133.258C178.339 133.258 178.883 133.61 178.883 134.314 178.883 134.685 178.774 135.107 178.556 135.581 178.352 136.041 177.84 136.88 177.021 138.095L175.773 139.938 173.7 139.938 176.08 133.258Z" fill="#AA0071" transform="matrix(1.00266 0 0 1 500 159)"/><path d="M163.074 137.174C161.679 137.174 160.367 136.905 159.139 136.368L159.139 134.218C160.649 134.704 161.916 134.947 162.939 134.947 163.733 134.947 164.334 134.768 164.744 134.41 165.153 134.052 165.358 133.527 165.358 132.836 165.358 132.145 165.153 131.639 164.744 131.319 164.334 130.987 163.701 130.82 162.843 130.82 161.896 130.82 160.847 130.884 159.695 131.012L159.695 129.285 160.041 123.584 167.584 123.584 167.584 125.772 162.402 125.772 162.191 128.92C162.715 128.792 163.266 128.728 163.841 128.728 165.159 128.728 166.215 129.099 167.009 129.841 167.802 130.571 168.199 131.55 168.199 132.778 168.199 133.674 167.975 134.455 167.527 135.12 167.092 135.785 166.484 136.297 165.703 136.656 164.936 137.001 164.059 137.174 163.074 137.174Z" fill="#AA0071" transform="matrix(1.00266 0 0 1 500 159)"/><path d="M138.347 130.724 146.792 130.724 146.792 133.181 138.347 133.181 138.347 130.724Z" fill="#AA0071" transform="matrix(1.00266 0 0 1 500 159)"/><path d="M117.209 134.659 120.318 134.659 120.318 126.31 117.286 127.25 117.286 125.158 120.645 123.584 123.159 123.584 123.159 134.659 126.115 134.659 126.115 136.886 117.209 136.886 117.209 134.659Z" fill="#AA0071" transform="matrix(1.00266 0 0 1 500 159)"/><path d="M94.171 123.584 98.413 123.584C99.3216 123.584 100.115 123.763 100.793 124.121 101.471 124.467 101.99 124.953 102.348 125.58 102.719 126.207 102.905 126.937 102.905 127.768 102.905 128.498 102.713 129.17 102.329 129.784 101.958 130.385 101.433 130.878 100.755 131.262L103.596 136.886 100.62 136.886 98.2978 131.914 96.8966 131.914 96.8966 136.886 94.171 136.886 94.171 123.584ZM98.0483 129.918C98.7009 129.918 99.2001 129.739 99.5454 129.381 99.891 129.01 100.064 128.485 100.064 127.807 100.064 127.116 99.891 126.585 99.5454 126.214 99.2001 125.843 98.7137 125.657 98.0866 125.657L96.8966 125.657 96.8966 129.918 98.0483 129.918Z" fill="#AA0071" transform="matrix(1.00266 0 0 1 500 159)"/><path d="M80.9723 123.584 89.3989 123.584 89.3989 125.734 83.6981 125.734 83.6981 128.997 88.3049 128.997 88.3049 131.147 83.6981 131.147 83.6981 134.736 89.3989 134.736 89.3989 136.886 80.9723 136.886 80.9723 123.584Z" fill="#AA0071" transform="matrix(1.00266 0 0 1 500 159)"/><path d="M67.294 123.584 71.5169 123.584C72.7966 123.584 73.8268 123.91 74.6073 124.563 75.4006 125.215 75.7974 126.067 75.7974 127.116 75.7974 127.781 75.631 128.357 75.2983 128.843 74.9783 129.33 74.5178 129.681 73.9164 129.899 74.7096 130.155 75.3176 130.558 75.7398 131.108 76.1621 131.658 76.3732 132.33 76.3732 133.124 76.3732 134.275 75.9446 135.19 75.0872 135.869 74.2298 136.547 73.078 136.886 71.6321 136.886L67.294 136.886 67.294 123.584ZM71.5745 134.832C72.8798 134.832 73.5324 134.218 73.5324 132.989 73.5324 131.722 72.8349 131.089 71.4401 131.089L70.0198 131.089 70.0198 134.832 71.5745 134.832ZM71.133 129.131C72.3743 129.131 72.995 128.555 72.995 127.404 72.995 126.226 72.4254 125.638 71.2865 125.638L70.0198 125.638 70.0198 129.131 71.133 129.131Z" fill="#AA0071" transform="matrix(1.00266 0 0 1 500 159)"/><path d="M53.4622 123.584 56.4565 123.584 58.184 129.477 59.9308 123.584 62.8675 123.584 62.8675 136.886 60.5449 136.886 60.5449 127.173 59.067 131.876 57.2626 131.876 55.7655 127.135 55.7655 136.886 53.4622 136.886 53.4622 123.584Z" fill="#AA0071" transform="matrix(1.00266 0 0 1 500 159)"/><path d="M40.6858 123.584 49.1123 123.584 49.1123 125.734 43.4115 125.734 43.4115 128.997 48.0184 128.997 48.0184 131.147 43.4115 131.147 43.4115 134.736 49.1123 134.736 49.1123 136.886 40.6858 136.886 40.6858 123.584Z" fill="#AA0071" transform="matrix(1.00266 0 0 1 500 159)"/><path d="M32.6699 137.135C30.6224 137.135 29.0806 136.566 28.044 135.427 27.0075 134.275 26.4893 132.567 26.4893 130.302 26.4893 128.076 27.0267 126.361 28.1016 125.158 29.1892 123.942 30.7313 123.334 32.7275 123.334 33.8153 123.334 34.8263 123.539 35.7603 123.949L35.7603 126.079C35.3764 125.938 34.9413 125.823 34.4551 125.734 33.9816 125.644 33.5337 125.599 33.1114 125.599 31.8445 125.599 30.9041 125.964 30.2898 126.694 29.6756 127.41 29.3684 128.523 29.3684 130.033L29.3684 130.475C29.3684 131.972 29.6691 133.079 30.2707 133.796 30.8721 134.512 31.7998 134.87 33.0538 134.87 33.4761 134.87 33.9496 134.826 34.4743 134.736 35.0118 134.634 35.498 134.499 35.9331 134.333L35.9331 136.464C34.9861 136.912 33.8983 137.135 32.6699 137.135Z" fill="#AA0071" transform="matrix(1.00266 0 0 1 500 159)"/><path d="M13.8282 123.584 22.2546 123.584 22.2546 125.734 16.5538 125.734 16.5538 128.997 21.1607 128.997 21.1607 131.147 16.5538 131.147 16.5538 134.736 22.2546 134.736 22.2546 136.886 13.8282 136.886 13.8282 123.584Z" fill="#AA0071" transform="matrix(1.00266 0 0 1 500 159)"/><path d="M0.0154314 123.584 3.58566 123.584C7.24547 123.584 9.07537 125.798 9.07537 130.225 9.07537 132.478 8.61469 134.154 7.69335 135.254 6.78479 136.342 5.40277 136.886 3.54727 136.886L0.0154314 136.886 0.0154314 123.584ZM3.41291 134.755C4.41104 134.755 5.12124 134.423 5.54353 133.757 5.97861 133.092 6.19615 131.978 6.19615 130.417L6.19615 130.033C6.19615 128.459 5.97861 127.346 5.54353 126.694 5.12124 126.041 4.39825 125.715 3.37452 125.715L2.81787 125.715 2.81787 134.755 3.41291 134.755Z" fill="#AA0071" transform="matrix(1.00266 0 0 1 500 159)"/></g></svg>